<svg width="24" height="24" viewBox="0 0 24 24" fill="none" xmlns="http://www.w3.org/2000/svg">
<path d="M12.71 14.83L16.95 10.59C17.0437 10.497 17.1181 10.3864 17.1689 10.2646C17.2197 10.1427 17.2458 10.012 17.2458 9.88C17.2458 9.74799 17.2197 9.61728 17.1689 9.49542C17.1181 9.37356 17.0437 9.26296 16.95 9.17C16.7626 8.98375 16.5092 8.87921 16.245 8.87921C15.9808 8.87921 15.7274 8.98375 15.54 9.17L12 12.71L8.45999 9.17C8.27263 8.98375 8.01918 8.87921 7.75499 8.87921C7.4908 8.87921 7.23735 8.98375 7.04999 9.17C6.95731 9.26344 6.88398 9.37426 6.83422 9.49609C6.78445 9.61793 6.75923 9.74839 6.75999 9.88C6.75923 10.0116 6.78445 10.1421 6.83422 10.2639C6.88398 10.3857 6.95731 10.4966 7.04999 10.59L11.29 14.83C11.383 14.9237 11.4936 14.9981 11.6154 15.0489C11.7373 15.0997 11.868 15.1258 12 15.1258C12.132 15.1258 12.2627 15.0997 12.3846 15.0489C12.5064 14.9981 12.617 14.9237 12.71 14.83Z" fill="#2F3037"/>
</svg>
